<?xml version="1.0" encoding="UTF-8" standalone="no"?><!DOCTYPE svg PUBLIC "-//W3C//DTD SVG 1.1//EN" "http://www.w3.org/Graphics/SVG/1.1/DTD/svg11.dtd"><svg width="100%" height="100%" viewBox="0 0 2284 1080" version="1.1" xmlns="http://www.w3.org/2000/svg" xmlns:xlink="http://www.w3.org/1999/xlink" xml:space="preserve" xmlns:serif="http://www.serif.com/" style="fill-rule:evenodd;clip-rule:evenodd;stroke-linejoin:round;stroke-miterlimit:2;"><g id="Gruppe_5"><path id="Pfad_1" d="M429.969,0.39c0.022,-0.013 0.048,-0.02 0.074,-0.02c0.026,0 0.052,0.007 0.074,0.02l73.892,42.684l73.912,42.65c0.045,0.027 0.074,0.075 0.074,0.128l-0.02,85.335l0.02,85.334c0,0.053 -0.029,0.101 -0.074,0.128l-73.912,42.65l-73.892,42.684c-0.046,0.027 -0.102,0.027 -0.148,0l-73.893,-42.684l-73.911,-42.65c-0.022,-0.013 -0.041,-0.032 -0.054,-0.054c-0.013,-0.022 -0.02,-0.048 -0.02,-0.074l0.02,-85.334l-0.02,-85.331c0,-0.026 0.007,-0.052 0.02,-0.074c0.013,-0.022 0.032,-0.041 0.054,-0.054l73.912,-42.65l73.892,-42.688Zm0.006,13.71c0.021,-0.012 0.044,-0.018 0.068,-0.018c0.024,0 0.047,0.006 0.068,0.018l67.96,39.256l67.979,39.226c0.021,0.012 0.038,0.029 0.05,0.05c0.012,0.021 0.018,0.044 0.018,0.068l-0.018,78.485l0.018,78.485c0,0.024 -0.006,0.047 -0.018,0.068c-0.012,0.021 -0.029,0.038 -0.05,0.05l-67.979,39.228l-67.961,39.258c-0.042,0.025 -0.094,0.025 -0.136,0l-67.96,-39.258l-67.979,-39.227c-0.042,-0.025 -0.068,-0.069 -0.068,-0.118l0.018,-78.485l-0.018,-78.485c0,-0.049 0.026,-0.093 0.068,-0.118l67.979,-39.227l67.961,-39.256Z" style="fill:#3aff00;fill-opacity:0.05;"/><path id="Pfad_1-2" d="M571.352,246.741c0.022,-0.013 0.048,-0.02 0.074,-0.02c0.026,0 0.052,0.007 0.074,0.02l73.892,42.684l73.912,42.65c0.045,0.027 0.074,0.075 0.074,0.128l-0.02,85.335l0.02,85.334c0,0.053 -0.029,0.101 -0.074,0.128l-73.912,42.65l-73.892,42.684c-0.046,0.027 -0.102,0.027 -0.148,0l-73.893,-42.684l-73.911,-42.65c-0.022,-0.013 -0.041,-0.032 -0.054,-0.054c-0.013,-0.022 -0.02,-0.048 -0.02,-0.074l0.02,-85.334l-0.02,-85.331c0,-0.026 0.007,-0.052 0.02,-0.074c0.013,-0.022 0.032,-0.041 0.054,-0.054l73.912,-42.65l73.892,-42.688Zm0.006,13.71c0.021,-0.012 0.044,-0.018 0.068,-0.018c0.024,0 0.047,0.006 0.068,0.018l67.96,39.256l67.979,39.226c0.021,0.012 0.038,0.029 0.05,0.05c0.012,0.021 0.018,0.044 0.018,0.068l-0.018,78.485l0.018,78.485c0,0.024 -0.006,0.047 -0.018,0.068c-0.012,0.021 -0.029,0.038 -0.05,0.05l-67.979,39.228l-67.961,39.258c-0.042,0.025 -0.094,0.025 -0.136,0l-67.96,-39.258l-67.979,-39.227c-0.042,-0.025 -0.068,-0.069 -0.068,-0.118l0.018,-78.485l-0.018,-78.485c0,-0.049 0.026,-0.093 0.068,-0.118l67.979,-39.227l67.961,-39.256Z" style="fill:#3aff00;fill-opacity:0.05;"/><path id="Pfad_1-3" d="M288.585,246.741c0.022,-0.013 0.048,-0.02 0.074,-0.02c0.026,0 0.052,0.007 0.074,0.02l73.892,42.684l73.912,42.65c0.045,0.027 0.074,0.075 0.074,0.128l-0.02,85.335l0.02,85.334c0,0.053 -0.029,0.101 -0.074,0.128l-73.912,42.65l-73.892,42.684c-0.046,0.027 -0.102,0.027 -0.148,0l-73.893,-42.684l-73.911,-42.65c-0.022,-0.013 -0.041,-0.032 -0.054,-0.054c-0.013,-0.022 -0.02,-0.048 -0.02,-0.074l0.02,-85.334l-0.02,-85.331c0,-0.026 0.007,-0.052 0.02,-0.074c0.013,-0.022 0.032,-0.041 0.054,-0.054l73.912,-42.65l73.892,-42.688Zm0.006,13.71c0.021,-0.012 0.044,-0.018 0.068,-0.018c0.024,0 0.047,0.006 0.068,0.018l67.96,39.256l67.979,39.226c0.021,0.012 0.038,0.029 0.05,0.05c0.012,0.021 0.018,0.044 0.018,0.068l-0.018,78.485l0.018,78.485c0,0.024 -0.006,0.047 -0.018,0.068c-0.012,0.021 -0.029,0.038 -0.05,0.05l-67.979,39.228l-67.961,39.258c-0.042,0.025 -0.094,0.025 -0.136,0l-67.96,-39.258l-67.979,-39.227c-0.042,-0.025 -0.068,-0.069 -0.068,-0.118l0.018,-78.485l-0.018,-78.485c0,-0.049 0.026,-0.093 0.068,-0.118l67.979,-39.227l67.961,-39.256Z" style="fill:#3aff00;fill-opacity:0.05;"/><path id="Pfad_1-4" d="M996.575,0.39c0.022,-0.013 0.048,-0.02 0.074,-0.02c0.026,0 0.052,0.007 0.074,0.02l73.892,42.684l73.912,42.65c0.045,0.027 0.074,0.075 0.074,0.128l-0.02,85.335l0.02,85.334c0,0.053 -0.029,0.101 -0.074,0.128l-73.912,42.65l-73.892,42.684c-0.046,0.027 -0.102,0.027 -0.148,0l-73.893,-42.684l-73.911,-42.65c-0.022,-0.013 -0.041,-0.032 -0.054,-0.054c-0.013,-0.022 -0.02,-0.048 -0.02,-0.074l0.02,-85.334l-0.02,-85.331c0,-0.026 0.007,-0.052 0.02,-0.074c0.013,-0.022 0.032,-0.041 0.054,-0.054l73.912,-42.65l73.892,-42.688Zm0.006,13.71c0.021,-0.012 0.044,-0.018 0.068,-0.018c0.024,0 0.047,0.006 0.068,0.018l67.96,39.256l67.979,39.226c0.021,0.012 0.038,0.029 0.05,0.05c0.012,0.021 0.018,0.044 0.018,0.068l-0.018,78.485l0.018,78.485c0,0.024 -0.006,0.047 -0.018,0.068c-0.012,0.021 -0.029,0.038 -0.05,0.05l-67.979,39.228l-67.961,39.258c-0.042,0.025 -0.094,0.025 -0.136,0l-67.96,-39.258l-67.979,-39.227c-0.042,-0.025 -0.068,-0.069 -0.068,-0.118l0.018,-78.485l-0.018,-78.485c0,-0.049 0.026,-0.093 0.068,-0.118l67.979,-39.227l67.961,-39.256Z" style="fill:#3aff00;fill-opacity:0.05;"/><path id="Pfad_1-5" d="M1137.96,246.741c0.022,-0.013 0.048,-0.02 0.074,-0.02c0.026,0 0.052,0.007 0.074,0.02l73.892,42.684l73.912,42.65c0.045,0.027 0.074,0.075 0.074,0.128l-0.02,85.335l0.02,85.334c0,0.053 -0.029,0.101 -0.074,0.128l-73.912,42.65l-73.892,42.684c-0.046,0.027 -0.102,0.027 -0.148,0l-73.893,-42.684l-73.911,-42.65c-0.022,-0.013 -0.041,-0.032 -0.054,-0.054c-0.013,-0.022 -0.02,-0.048 -0.02,-0.074l0.02,-85.334l-0.02,-85.331c0,-0.026 0.007,-0.052 0.02,-0.074c0.013,-0.022 0.032,-0.041 0.054,-0.054l73.912,-42.65l73.892,-42.688Zm0.006,13.71c0.021,-0.012 0.044,-0.018 0.068,-0.018c0.024,0 0.047,0.006 0.068,0.018l67.96,39.256l67.979,39.226c0.021,0.012 0.038,0.029 0.05,0.05c0.012,0.021 0.018,0.044 0.018,0.068l-0.018,78.485l0.018,78.485c0,0.024 -0.006,0.047 -0.018,0.068c-0.012,0.021 -0.029,0.038 -0.05,0.05l-67.979,39.228l-67.961,39.258c-0.042,0.025 -0.094,0.025 -0.136,0l-67.96,-39.258l-67.979,-39.227c-0.042,-0.025 -0.068,-0.069 -0.068,-0.118l0.018,-78.485l-0.018,-78.485c0,-0.049 0.026,-0.093 0.068,-0.118l67.979,-39.227l67.961,-39.256Z" style="fill:#3aff00;fill-opacity:0.05;"/><path id="Pfad_1-6" d="M855.191,246.741c0.022,-0.013 0.048,-0.02 0.074,-0.02c0.026,0 0.052,0.007 0.074,0.02l73.892,42.684l73.912,42.65c0.045,0.027 0.074,0.075 0.074,0.128l-0.02,85.335l0.02,85.334c0,0.053 -0.029,0.101 -0.074,0.128l-73.912,42.65l-73.892,42.684c-0.046,0.027 -0.102,0.027 -0.148,0l-73.893,-42.684l-73.911,-42.65c-0.022,-0.013 -0.041,-0.032 -0.054,-0.054c-0.013,-0.022 -0.02,-0.048 -0.02,-0.074l0.02,-85.334l-0.02,-85.331c0,-0.026 0.007,-0.052 0.02,-0.074c0.013,-0.022 0.032,-0.041 0.054,-0.054l73.912,-42.65l73.892,-42.688Zm0.006,13.71c0.021,-0.012 0.044,-0.018 0.068,-0.018c0.024,0 0.047,0.006 0.068,0.018l67.96,39.256l67.979,39.226c0.021,0.012 0.038,0.029 0.05,0.05c0.012,0.021 0.018,0.044 0.018,0.068l-0.018,78.485l0.018,78.485c0,0.024 -0.006,0.047 -0.018,0.068c-0.012,0.021 -0.029,0.038 -0.05,0.05l-67.979,39.228l-67.961,39.258c-0.042,0.025 -0.094,0.025 -0.136,0l-67.96,-39.258l-67.979,-39.227c-0.042,-0.025 -0.068,-0.069 -0.068,-0.118l0.018,-78.485l-0.018,-78.485c0,-0.049 0.026,-0.093 0.068,-0.118l67.979,-39.227l67.961,-39.256Z" style="fill:#3aff00;fill-opacity:0.05;"/><path id="Pfad_1-7" d="M713.807,0.39c0.022,-0.013 0.048,-0.02 0.074,-0.02c0.026,0 0.052,0.007 0.074,0.02l73.892,42.684l73.912,42.65c0.045,0.027 0.074,0.075 0.074,0.128l-0.02,85.335l0.02,85.334c0,0.053 -0.029,0.101 -0.074,0.128l-73.912,42.65l-73.892,42.684c-0.046,0.027 -0.102,0.027 -0.148,0l-73.893,-42.684l-73.911,-42.65c-0.022,-0.013 -0.041,-0.032 -0.054,-0.054c-0.013,-0.022 -0.02,-0.048 -0.02,-0.074l0.02,-85.334l-0.02,-85.331c0,-0.026 0.007,-0.052 0.02,-0.074c0.013,-0.022 0.032,-0.041 0.054,-0.054l73.912,-42.65l73.892,-42.688Zm0.006,13.71c0.021,-0.012 0.044,-0.018 0.068,-0.018c0.024,0 0.047,0.006 0.068,0.018l67.96,39.256l67.979,39.226c0.021,0.012 0.038,0.029 0.05,0.05c0.012,0.021 0.018,0.044 0.018,0.068l-0.018,78.485l0.018,78.485c0,0.024 -0.006,0.047 -0.018,0.068c-0.012,0.021 -0.029,0.038 -0.05,0.05l-67.979,39.228l-67.961,39.258c-0.042,0.025 -0.094,0.025 -0.136,0l-67.96,-39.258l-67.979,-39.227c-0.042,-0.025 -0.068,-0.069 -0.068,-0.118l0.018,-78.485l-0.018,-78.485c0,-0.049 0.026,-0.093 0.068,-0.118l67.979,-39.227l67.961,-39.256Z" style="fill:#3aff00;fill-opacity:0.05;"/><path id="Pfad_1-8" d="M431.04,492.02c0.022,-0.013 0.048,-0.02 0.074,-0.02c0.026,0 0.052,0.007 0.074,0.02l73.892,42.684l73.912,42.65c0.045,0.027 0.074,0.075 0.074,0.128l-0.02,85.335l0.02,85.334c0,0.053 -0.029,0.101 -0.074,0.128l-73.912,42.65l-73.892,42.684c-0.046,0.027 -0.102,0.027 -0.148,0l-73.893,-42.684l-73.911,-42.65c-0.022,-0.013 -0.041,-0.032 -0.054,-0.054c-0.013,-0.022 -0.02,-0.048 -0.02,-0.074l0.02,-85.334l-0.02,-85.331c0,-0.026 0.007,-0.052 0.02,-0.074c0.013,-0.022 0.032,-0.041 0.054,-0.054l73.912,-42.65l73.892,-42.688Zm0.006,13.71c0.021,-0.012 0.044,-0.018 0.068,-0.018c0.024,0 0.047,0.006 0.068,0.018l67.96,39.256l67.979,39.226c0.021,0.012 0.038,0.029 0.05,0.05c0.012,0.021 0.018,0.044 0.018,0.068l-0.018,78.485l0.018,78.485c0,0.024 -0.006,0.047 -0.018,0.068c-0.012,0.021 -0.029,0.038 -0.05,0.05l-67.979,39.228l-67.961,39.258c-0.042,0.025 -0.094,0.025 -0.136,0l-67.96,-39.258l-67.979,-39.227c-0.042,-0.025 -0.068,-0.069 -0.068,-0.118l0.018,-78.485l-0.018,-78.485c0,-0.049 0.026,-0.093 0.068,-0.118l67.979,-39.227l67.961,-39.256Z" style="fill:#3aff00;fill-opacity:0.05;"/><path id="Pfad_1-9" d="M572.424,738.371c0.022,-0.013 0.048,-0.02 0.074,-0.02c0.026,0 0.052,0.007 0.074,0.02l73.892,42.684l73.912,42.65c0.045,0.027 0.074,0.075 0.074,0.128l-0.02,85.335l0.02,85.334c0,0.053 -0.029,0.101 -0.074,0.128l-73.912,42.65l-73.892,42.684c-0.046,0.027 -0.102,0.027 -0.148,0l-73.893,-42.684l-73.911,-42.65c-0.022,-0.013 -0.041,-0.032 -0.054,-0.054c-0.013,-0.022 -0.02,-0.048 -0.02,-0.074l0.02,-85.334l-0.02,-85.331c0,-0.026 0.007,-0.052 0.02,-0.074c0.013,-0.022 0.032,-0.041 0.054,-0.054l73.912,-42.65l73.892,-42.688Zm0.006,13.71c0.021,-0.012 0.044,-0.018 0.068,-0.018c0.024,0 0.047,0.006 0.068,0.018l67.96,39.256l67.979,39.226c0.021,0.012 0.038,0.029 0.05,0.05c0.012,0.021 0.018,0.044 0.018,0.068l-0.018,78.485l0.018,78.485c0,0.024 -0.006,0.047 -0.018,0.068c-0.012,0.021 -0.029,0.038 -0.05,0.05l-67.979,39.228l-67.961,39.258c-0.042,0.025 -0.094,0.025 -0.136,0l-67.96,-39.258l-67.979,-39.227c-0.042,-0.025 -0.068,-0.069 -0.068,-0.118l0.018,-78.485l-0.018,-78.485c0,-0.049 0.026,-0.093 0.068,-0.118l67.979,-39.227l67.961,-39.256Z" style="fill:#3aff00;fill-opacity:0.05;"/><path id="Pfad_1-10" d="M289.656,738.371c0.022,-0.013 0.048,-0.02 0.074,-0.02c0.026,0 0.052,0.007 0.074,0.02l73.892,42.684l73.912,42.65c0.045,0.027 0.074,0.075 0.074,0.128l-0.02,85.335l0.02,85.334c0,0.053 -0.029,0.101 -0.074,0.128l-73.912,42.65l-73.892,42.684c-0.046,0.027 -0.102,0.027 -0.148,0l-73.893,-42.684l-73.911,-42.65c-0.022,-0.013 -0.041,-0.032 -0.054,-0.054c-0.013,-0.022 -0.02,-0.048 -0.02,-0.074l0.02,-85.334l-0.02,-85.331c0,-0.026 0.007,-0.052 0.02,-0.074c0.013,-0.022 0.032,-0.041 0.054,-0.054l73.912,-42.65l73.892,-42.688Zm0.006,13.71c0.021,-0.012 0.044,-0.018 0.068,-0.018c0.024,0 0.047,0.006 0.068,0.018l67.96,39.256l67.979,39.226c0.021,0.012 0.038,0.029 0.05,0.05c0.012,0.021 0.018,0.044 0.018,0.068l-0.018,78.485l0.018,78.485c0,0.024 -0.006,0.047 -0.018,0.068c-0.012,0.021 -0.029,0.038 -0.05,0.05l-67.979,39.228l-67.961,39.258c-0.042,0.025 -0.094,0.025 -0.136,0l-67.96,-39.258l-67.979,-39.227c-0.042,-0.025 -0.068,-0.069 -0.068,-0.118l0.018,-78.485l-0.018,-78.485c0,-0.049 0.026,-0.093 0.068,-0.118l67.979,-39.227l67.961,-39.256Z" style="fill:#3aff00;fill-opacity:0.05;"/><path id="Pfad_1-11" d="M997.646,492.02c0.022,-0.013 0.048,-0.02 0.074,-0.02c0.026,0 0.052,0.007 0.074,0.02l73.892,42.684l73.912,42.65c0.045,0.027 0.074,0.075 0.074,0.128l-0.02,85.335l0.02,85.334c0,0.053 -0.029,0.101 -0.074,0.128l-73.912,42.65l-73.892,42.684c-0.046,0.027 -0.102,0.027 -0.148,0l-73.893,-42.684l-73.911,-42.65c-0.022,-0.013 -0.041,-0.032 -0.054,-0.054c-0.013,-0.022 -0.02,-0.048 -0.02,-0.074l0.02,-85.334l-0.02,-85.331c0,-0.026 0.007,-0.052 0.02,-0.074c0.013,-0.022 0.032,-0.041 0.054,-0.054l73.912,-42.65l73.892,-42.688Zm0.006,13.71c0.021,-0.012 0.044,-0.018 0.068,-0.018c0.024,0 0.047,0.006 0.068,0.018l67.96,39.256l67.979,39.226c0.021,0.012 0.038,0.029 0.05,0.05c0.012,0.021 0.018,0.044 0.018,0.068l-0.018,78.485l0.018,78.485c0,0.024 -0.006,0.047 -0.018,0.068c-0.012,0.021 -0.029,0.038 -0.05,0.05l-67.979,39.228l-67.961,39.258c-0.042,0.025 -0.094,0.025 -0.136,0l-67.96,-39.258l-67.979,-39.227c-0.042,-0.025 -0.068,-0.069 -0.068,-0.118l0.018,-78.485l-0.018,-78.485c0,-0.049 0.026,-0.093 0.068,-0.118l67.979,-39.227l67.961,-39.256Z" style="fill:#3aff00;fill-opacity:0.05;"/><path id="Pfad_1-12" d="M1139.03,738.371c0.022,-0.013 0.048,-0.02 0.074,-0.02c0.026,0 0.052,0.007 0.074,0.02l73.892,42.684l73.912,42.65c0.045,0.027 0.074,0.075 0.074,0.128l-0.02,85.335l0.02,85.334c0,0.053 -0.029,0.101 -0.074,0.128l-73.912,42.65l-73.892,42.684c-0.046,0.027 -0.102,0.027 -0.148,0l-73.893,-42.684l-73.911,-42.65c-0.022,-0.013 -0.041,-0.032 -0.054,-0.054c-0.013,-0.022 -0.02,-0.048 -0.02,-0.074l0.02,-85.334l-0.02,-85.331c0,-0.026 0.007,-0.052 0.02,-0.074c0.013,-0.022 0.032,-0.041 0.054,-0.054l73.912,-42.65l73.892,-42.688Zm0.006,13.71c0.021,-0.012 0.044,-0.018 0.068,-0.018c0.024,0 0.047,0.006 0.068,0.018l67.96,39.256l67.979,39.226c0.021,0.012 0.038,0.029 0.05,0.05c0.012,0.021 0.018,0.044 0.018,0.068l-0.018,78.485l0.018,78.485c0,0.024 -0.006,0.047 -0.018,0.068c-0.012,0.021 -0.029,0.038 -0.05,0.05l-67.979,39.228l-67.961,39.258c-0.042,0.025 -0.094,0.025 -0.136,0l-67.96,-39.258l-67.979,-39.227c-0.042,-0.025 -0.068,-0.069 -0.068,-0.118l0.018,-78.485l-0.018,-78.485c0,-0.049 0.026,-0.093 0.068,-0.118l67.979,-39.227l67.961,-39.256Z" style="fill:#3aff00;fill-opacity:0.05;"/><path id="Pfad_1-13" d="M856.262,738.371c0.022,-0.013 0.048,-0.02 0.074,-0.02c0.026,0 0.052,0.007 0.074,0.02l73.892,42.684l73.912,42.65c0.045,0.027 0.074,0.075 0.074,0.128l-0.02,85.335l0.02,85.334c0,0.053 -0.029,0.101 -0.074,0.128l-73.912,42.65l-73.892,42.684c-0.046,0.027 -0.102,0.027 -0.148,0l-73.893,-42.684l-73.911,-42.65c-0.022,-0.013 -0.041,-0.032 -0.054,-0.054c-0.013,-0.022 -0.02,-0.048 -0.02,-0.074l0.02,-85.334l-0.02,-85.331c0,-0.026 0.007,-0.052 0.02,-0.074c0.013,-0.022 0.032,-0.041 0.054,-0.054l73.912,-42.65l73.892,-42.688Zm0.006,13.71c0.021,-0.012 0.044,-0.018 0.068,-0.018c0.024,0 0.047,0.006 0.068,0.018l67.96,39.256l67.979,39.226c0.021,0.012 0.038,0.029 0.05,0.05c0.012,0.021 0.018,0.044 0.018,0.068l-0.018,78.485l0.018,78.485c0,0.024 -0.006,0.047 -0.018,0.068c-0.012,0.021 -0.029,0.038 -0.05,0.05l-67.979,39.228l-67.961,39.258c-0.042,0.025 -0.094,0.025 -0.136,0l-67.96,-39.258l-67.979,-39.227c-0.042,-0.025 -0.068,-0.069 -0.068,-0.118l0.018,-78.485l-0.018,-78.485c0,-0.049 0.026,-0.093 0.068,-0.118l67.979,-39.227l67.961,-39.256Z" style="fill:#3aff00;fill-opacity:0.05;"/><path id="Pfad_1-14" d="M714.878,492.02c0.022,-0.013 0.048,-0.02 0.074,-0.02c0.026,0 0.052,0.007 0.074,0.02l73.892,42.684l73.912,42.65c0.045,0.027 0.074,0.075 0.074,0.128l-0.02,85.335l0.02,85.334c0,0.053 -0.029,0.101 -0.074,0.128l-73.912,42.65l-73.892,42.684c-0.046,0.027 -0.102,0.027 -0.148,0l-73.893,-42.684l-73.911,-42.65c-0.022,-0.013 -0.041,-0.032 -0.054,-0.054c-0.013,-0.022 -0.02,-0.048 -0.02,-0.074l0.02,-85.334l-0.02,-85.331c0,-0.026 0.007,-0.052 0.02,-0.074c0.013,-0.022 0.032,-0.041 0.054,-0.054l73.912,-42.65l73.892,-42.688Zm0.006,13.71c0.021,-0.012 0.044,-0.018 0.068,-0.018c0.024,0 0.047,0.006 0.068,0.018l67.96,39.256l67.979,39.226c0.021,0.012 0.038,0.029 0.05,0.05c0.012,0.021 0.018,0.044 0.018,0.068l-0.018,78.485l0.018,78.485c0,0.024 -0.006,0.047 -0.018,0.068c-0.012,0.021 -0.029,0.038 -0.05,0.05l-67.979,39.228l-67.961,39.258c-0.042,0.025 -0.094,0.025 -0.136,0l-67.96,-39.258l-67.979,-39.227c-0.042,-0.025 -0.068,-0.069 -0.068,-0.118l0.018,-78.485l-0.018,-78.485c0,-0.049 0.026,-0.093 0.068,-0.118l67.979,-39.227l67.961,-39.256Z" style="fill:#3aff00;fill-opacity:0.05;"/><path id="Pfad_1-15" d="M1279.97,0.39c0.022,-0.013 0.048,-0.02 0.074,-0.02c0.026,0 0.052,0.007 0.074,0.02l73.892,42.684l73.912,42.65c0.045,0.027 0.074,0.075 0.074,0.128l-0.02,85.335l0.02,85.334c0,0.053 -0.029,0.101 -0.074,0.128l-73.912,42.65l-73.892,42.684c-0.046,0.027 -0.102,0.027 -0.148,0l-73.893,-42.684l-73.911,-42.65c-0.022,-0.013 -0.041,-0.032 -0.054,-0.054c-0.013,-0.022 -0.02,-0.048 -0.02,-0.074l0.02,-85.334l-0.02,-85.331c0,-0.026 0.007,-0.052 0.02,-0.074c0.013,-0.022 0.032,-0.041 0.054,-0.054l73.912,-42.65l73.892,-42.688Zm0.006,13.71c0.021,-0.012 0.044,-0.018 0.068,-0.018c0.024,0 0.047,0.006 0.068,0.018l67.96,39.256l67.979,39.226c0.021,0.012 0.038,0.029 0.05,0.05c0.012,0.021 0.018,0.044 0.018,0.068l-0.018,78.485l0.018,78.485c0,0.024 -0.006,0.047 -0.018,0.068c-0.012,0.021 -0.029,0.038 -0.05,0.05l-67.979,39.228l-67.961,39.258c-0.042,0.025 -0.094,0.025 -0.136,0l-67.96,-39.258l-67.979,-39.227c-0.042,-0.025 -0.068,-0.069 -0.068,-0.118l0.018,-78.485l-0.018,-78.485c0,-0.049 0.026,-0.093 0.068,-0.118l67.979,-39.227l67.961,-39.256Z" style="fill:#3aff00;fill-opacity:0.05;"/><path id="Pfad_1-16" d="M1421.35,246.741c0.022,-0.013 0.048,-0.02 0.074,-0.02c0.026,0 0.052,0.007 0.074,0.02l73.892,42.684l73.912,42.65c0.045,0.027 0.074,0.075 0.074,0.128l-0.02,85.335l0.02,85.334c0,0.053 -0.029,0.101 -0.074,0.128l-73.912,42.65l-73.892,42.684c-0.046,0.027 -0.102,0.027 -0.148,0l-73.893,-42.684l-73.911,-42.65c-0.022,-0.013 -0.041,-0.032 -0.054,-0.054c-0.013,-0.022 -0.02,-0.048 -0.02,-0.074l0.02,-85.334l-0.02,-85.331c0,-0.026 0.007,-0.052 0.02,-0.074c0.013,-0.022 0.032,-0.041 0.054,-0.054l73.912,-42.65l73.892,-42.688Zm0.006,13.71c0.021,-0.012 0.044,-0.018 0.068,-0.018c0.024,0 0.047,0.006 0.068,0.018l67.96,39.256l67.979,39.226c0.021,0.012 0.038,0.029 0.05,0.05c0.012,0.021 0.018,0.044 0.018,0.068l-0.018,78.485l0.018,78.485c0,0.024 -0.006,0.047 -0.018,0.068c-0.012,0.021 -0.029,0.038 -0.05,0.05l-67.979,39.228l-67.961,39.258c-0.042,0.025 -0.094,0.025 -0.136,0l-67.96,-39.258l-67.979,-39.227c-0.042,-0.025 -0.068,-0.069 -0.068,-0.118l0.018,-78.485l-0.018,-78.485c0,-0.049 0.026,-0.093 0.068,-0.118l67.979,-39.227l67.961,-39.256Z" style="fill:#3aff00;fill-opacity:0.05;"/><path id="Pfad_1-17" d="M1138.59,246.741c0.022,-0.013 0.048,-0.02 0.074,-0.02c0.026,0 0.052,0.007 0.074,0.02l73.892,42.684l73.912,42.65c0.045,0.027 0.074,0.075 0.074,0.128l-0.02,85.335l0.02,85.334c0,0.053 -0.029,0.101 -0.074,0.128l-73.912,42.65l-73.892,42.684c-0.046,0.027 -0.102,0.027 -0.148,0l-73.893,-42.684l-73.911,-42.65c-0.022,-0.013 -0.041,-0.032 -0.054,-0.054c-0.013,-0.022 -0.02,-0.048 -0.02,-0.074l0.02,-85.334l-0.02,-85.331c0,-0.026 0.007,-0.052 0.02,-0.074c0.013,-0.022 0.032,-0.041 0.054,-0.054l73.912,-42.65l73.892,-42.688Zm0.006,13.71c0.021,-0.012 0.044,-0.018 0.068,-0.018c0.024,0 0.047,0.006 0.068,0.018l67.96,39.256l67.979,39.226c0.021,0.012 0.038,0.029 0.05,0.05c0.012,0.021 0.018,0.044 0.018,0.068l-0.018,78.485l0.018,78.485c0,0.024 -0.006,0.047 -0.018,0.068c-0.012,0.021 -0.029,0.038 -0.05,0.05l-67.979,39.228l-67.961,39.258c-0.042,0.025 -0.094,0.025 -0.136,0l-67.96,-39.258l-67.979,-39.227c-0.042,-0.025 -0.068,-0.069 -0.068,-0.118l0.018,-78.485l-0.018,-78.485c0,-0.049 0.026,-0.093 0.068,-0.118l67.979,-39.227l67.961,-39.256Z" style="fill:#3aff00;fill-opacity:0.05;"/><path id="Pfad_1-18" d="M1846.58,0.39c0.022,-0.013 0.048,-0.02 0.074,-0.02c0.026,0 0.052,0.007 0.074,0.02l73.892,42.684l73.912,42.65c0.045,0.027 0.074,0.075 0.074,0.128l-0.02,85.335l0.02,85.334c0,0.053 -0.029,0.101 -0.074,0.128l-73.912,42.65l-73.892,42.684c-0.046,0.027 -0.102,0.027 -0.148,0l-73.893,-42.684l-73.911,-42.65c-0.022,-0.013 -0.041,-0.032 -0.054,-0.054c-0.013,-0.022 -0.02,-0.048 -0.02,-0.074l0.02,-85.334l-0.02,-85.331c0,-0.026 0.007,-0.052 0.02,-0.074c0.013,-0.022 0.032,-0.041 0.054,-0.054l73.912,-42.65l73.892,-42.688Zm0.006,13.71c0.021,-0.012 0.044,-0.018 0.068,-0.018c0.024,0 0.047,0.006 0.068,0.018l67.96,39.256l67.979,39.226c0.021,0.012 0.038,0.029 0.05,0.05c0.012,0.021 0.018,0.044 0.018,0.068l-0.018,78.485l0.018,78.485c0,0.024 -0.006,0.047 -0.018,0.068c-0.012,0.021 -0.029,0.038 -0.05,0.05l-67.979,39.228l-67.961,39.258c-0.042,0.025 -0.094,0.025 -0.136,0l-67.96,-39.258l-67.979,-39.227c-0.042,-0.025 -0.068,-0.069 -0.068,-0.118l0.018,-78.485l-0.018,-78.485c0,-0.049 0.026,-0.093 0.068,-0.118l67.979,-39.227l67.961,-39.256Z" style="fill:#3aff00;fill-opacity:0.05;"/><path id="Pfad_1-19" d="M1987.96,246.741c0.022,-0.013 0.048,-0.02 0.074,-0.02c0.026,0 0.052,0.007 0.074,0.02l73.892,42.684l73.912,42.65c0.045,0.027 0.074,0.075 0.074,0.128l-0.02,85.335l0.02,85.334c0,0.053 -0.029,0.101 -0.074,0.128l-73.912,42.65l-73.892,42.684c-0.046,0.027 -0.102,0.027 -0.148,0l-73.893,-42.684l-73.911,-42.65c-0.022,-0.013 -0.041,-0.032 -0.054,-0.054c-0.013,-0.022 -0.02,-0.048 -0.02,-0.074l0.02,-85.334l-0.02,-85.331c0,-0.026 0.007,-0.052 0.02,-0.074c0.013,-0.022 0.032,-0.041 0.054,-0.054l73.912,-42.65l73.892,-42.688Zm0.006,13.71c0.021,-0.012 0.044,-0.018 0.068,-0.018c0.024,0 0.047,0.006 0.068,0.018l67.96,39.256l67.979,39.226c0.021,0.012 0.038,0.029 0.05,0.05c0.012,0.021 0.018,0.044 0.018,0.068l-0.018,78.485l0.018,78.485c0,0.024 -0.006,0.047 -0.018,0.068c-0.012,0.021 -0.029,0.038 -0.05,0.05l-67.979,39.228l-67.961,39.258c-0.042,0.025 -0.094,0.025 -0.136,0l-67.96,-39.258l-67.979,-39.227c-0.042,-0.025 -0.068,-0.069 -0.068,-0.118l0.018,-78.485l-0.018,-78.485c0,-0.049 0.026,-0.093 0.068,-0.118l67.979,-39.227l67.961,-39.256Z" style="fill:#3aff00;fill-opacity:0.05;"/><path id="Pfad_1-20" d="M1705.19,246.741c0.022,-0.013 0.048,-0.02 0.074,-0.02c0.026,0 0.052,0.007 0.074,0.02l73.892,42.684l73.912,42.65c0.045,0.027 0.074,0.075 0.074,0.128l-0.02,85.335l0.02,85.334c0,0.053 -0.029,0.101 -0.074,0.128l-73.912,42.65l-73.892,42.684c-0.046,0.027 -0.102,0.027 -0.148,0l-73.893,-42.684l-73.911,-42.65c-0.022,-0.013 -0.041,-0.032 -0.054,-0.054c-0.013,-0.022 -0.02,-0.048 -0.02,-0.074l0.02,-85.334l-0.02,-85.331c0,-0.026 0.007,-0.052 0.02,-0.074c0.013,-0.022 0.032,-0.041 0.054,-0.054l73.912,-42.65l73.892,-42.688Zm0.006,13.71c0.021,-0.012 0.044,-0.018 0.068,-0.018c0.024,0 0.047,0.006 0.068,0.018l67.96,39.256l67.979,39.226c0.021,0.012 0.038,0.029 0.05,0.05c0.012,0.021 0.018,0.044 0.018,0.068l-0.018,78.485l0.018,78.485c0,0.024 -0.006,0.047 -0.018,0.068c-0.012,0.021 -0.029,0.038 -0.05,0.05l-67.979,39.228l-67.961,39.258c-0.042,0.025 -0.094,0.025 -0.136,0l-67.96,-39.258l-67.979,-39.227c-0.042,-0.025 -0.068,-0.069 -0.068,-0.118l0.018,-78.485l-0.018,-78.485c0,-0.049 0.026,-0.093 0.068,-0.118l67.979,-39.227l67.961,-39.256Z" style="fill:#3aff00;fill-opacity:0.05;"/><path id="Pfad_1-21" d="M1563.81,0.39c0.022,-0.013 0.048,-0.02 0.074,-0.02c0.026,0 0.052,0.007 0.074,0.02l73.892,42.684l73.912,42.65c0.045,0.027 0.074,0.075 0.074,0.128l-0.02,85.335l0.02,85.334c0,0.053 -0.029,0.101 -0.074,0.128l-73.912,42.65l-73.892,42.684c-0.046,0.027 -0.102,0.027 -0.148,0l-73.893,-42.684l-73.911,-42.65c-0.022,-0.013 -0.041,-0.032 -0.054,-0.054c-0.013,-0.022 -0.02,-0.048 -0.02,-0.074l0.02,-85.334l-0.02,-85.331c0,-0.026 0.007,-0.052 0.02,-0.074c0.013,-0.022 0.032,-0.041 0.054,-0.054l73.912,-42.65l73.892,-42.688Zm0.006,13.71c0.021,-0.012 0.044,-0.018 0.068,-0.018c0.024,0 0.047,0.006 0.068,0.018l67.96,39.256l67.979,39.226c0.021,0.012 0.038,0.029 0.05,0.05c0.012,0.021 0.018,0.044 0.018,0.068l-0.018,78.485l0.018,78.485c0,0.024 -0.006,0.047 -0.018,0.068c-0.012,0.021 -0.029,0.038 -0.05,0.05l-67.979,39.228l-67.961,39.258c-0.042,0.025 -0.094,0.025 -0.136,0l-67.96,-39.258l-67.979,-39.227c-0.042,-0.025 -0.068,-0.069 -0.068,-0.118l0.018,-78.485l-0.018,-78.485c0,-0.049 0.026,-0.093 0.068,-0.118l67.979,-39.227l67.961,-39.256Z" style="fill:#3aff00;fill-opacity:0.05;"/><path id="Pfad_1-22" d="M1281.04,492.02c0.022,-0.013 0.048,-0.02 0.074,-0.02c0.026,0 0.052,0.007 0.074,0.02l73.892,42.684l73.912,42.65c0.045,0.027 0.074,0.075 0.074,0.128l-0.02,85.335l0.02,85.334c0,0.053 -0.029,0.101 -0.074,0.128l-73.912,42.65l-73.892,42.684c-0.046,0.027 -0.102,0.027 -0.148,0l-73.893,-42.684l-73.911,-42.65c-0.022,-0.013 -0.041,-0.032 -0.054,-0.054c-0.013,-0.022 -0.02,-0.048 -0.02,-0.074l0.02,-85.334l-0.02,-85.331c0,-0.026 0.007,-0.052 0.02,-0.074c0.013,-0.022 0.032,-0.041 0.054,-0.054l73.912,-42.65l73.892,-42.688Zm0.006,13.71c0.021,-0.012 0.044,-0.018 0.068,-0.018c0.024,0 0.047,0.006 0.068,0.018l67.96,39.256l67.979,39.226c0.021,0.012 0.038,0.029 0.05,0.05c0.012,0.021 0.018,0.044 0.018,0.068l-0.018,78.485l0.018,78.485c0,0.024 -0.006,0.047 -0.018,0.068c-0.012,0.021 -0.029,0.038 -0.05,0.05l-67.979,39.228l-67.961,39.258c-0.042,0.025 -0.094,0.025 -0.136,0l-67.96,-39.258l-67.979,-39.227c-0.042,-0.025 -0.068,-0.069 -0.068,-0.118l0.018,-78.485l-0.018,-78.485c0,-0.049 0.026,-0.093 0.068,-0.118l67.979,-39.227l67.961,-39.256Z" style="fill:#3aff00;fill-opacity:0.05;"/><path id="Pfad_1-23" d="M1422.42,738.371c0.022,-0.013 0.048,-0.02 0.074,-0.02c0.026,0 0.052,0.007 0.074,0.02l73.892,42.684l73.912,42.65c0.045,0.027 0.074,0.075 0.074,0.128l-0.02,85.335l0.02,85.334c0,0.053 -0.029,0.101 -0.074,0.128l-73.912,42.65l-73.892,42.684c-0.046,0.027 -0.102,0.027 -0.148,0l-73.893,-42.684l-73.911,-42.65c-0.022,-0.013 -0.041,-0.032 -0.054,-0.054c-0.013,-0.022 -0.02,-0.048 -0.02,-0.074l0.02,-85.334l-0.02,-85.331c0,-0.026 0.007,-0.052 0.02,-0.074c0.013,-0.022 0.032,-0.041 0.054,-0.054l73.912,-42.65l73.892,-42.688Zm0.006,13.71c0.021,-0.012 0.044,-0.018 0.068,-0.018c0.024,0 0.047,0.006 0.068,0.018l67.96,39.256l67.979,39.226c0.021,0.012 0.038,0.029 0.05,0.05c0.012,0.021 0.018,0.044 0.018,0.068l-0.018,78.485l0.018,78.485c0,0.024 -0.006,0.047 -0.018,0.068c-0.012,0.021 -0.029,0.038 -0.05,0.05l-67.979,39.228l-67.961,39.258c-0.042,0.025 -0.094,0.025 -0.136,0l-67.96,-39.258l-67.979,-39.227c-0.042,-0.025 -0.068,-0.069 -0.068,-0.118l0.018,-78.485l-0.018,-78.485c0,-0.049 0.026,-0.093 0.068,-0.118l67.979,-39.227l67.961,-39.256Z" style="fill:#3aff00;fill-opacity:0.05;"/><path id="Pfad_1-24" d="M1139.66,738.371c0.022,-0.013 0.048,-0.02 0.074,-0.02c0.026,0 0.052,0.007 0.074,0.02l73.892,42.684l73.912,42.65c0.045,0.027 0.074,0.075 0.074,0.128l-0.02,85.335l0.02,85.334c0,0.053 -0.029,0.101 -0.074,0.128l-73.912,42.65l-73.892,42.684c-0.046,0.027 -0.102,0.027 -0.148,0l-73.893,-42.684l-73.911,-42.65c-0.022,-0.013 -0.041,-0.032 -0.054,-0.054c-0.013,-0.022 -0.02,-0.048 -0.02,-0.074l0.02,-85.334l-0.02,-85.331c0,-0.026 0.007,-0.052 0.02,-0.074c0.013,-0.022 0.032,-0.041 0.054,-0.054l73.912,-42.65l73.892,-42.688Zm0.006,13.71c0.021,-0.012 0.044,-0.018 0.068,-0.018c0.024,0 0.047,0.006 0.068,0.018l67.96,39.256l67.979,39.226c0.021,0.012 0.038,0.029 0.05,0.05c0.012,0.021 0.018,0.044 0.018,0.068l-0.018,78.485l0.018,78.485c0,0.024 -0.006,0.047 -0.018,0.068c-0.012,0.021 -0.029,0.038 -0.05,0.05l-67.979,39.228l-67.961,39.258c-0.042,0.025 -0.094,0.025 -0.136,0l-67.96,-39.258l-67.979,-39.227c-0.042,-0.025 -0.068,-0.069 -0.068,-0.118l0.018,-78.485l-0.018,-78.485c0,-0.049 0.026,-0.093 0.068,-0.118l67.979,-39.227l67.961,-39.256Z" style="fill:#3aff00;fill-opacity:0.05;"/><path id="Pfad_1-25" d="M1847.65,492.02c0.022,-0.013 0.048,-0.02 0.074,-0.02c0.026,0 0.052,0.007 0.074,0.02l73.892,42.684l73.912,42.65c0.045,0.027 0.074,0.075 0.074,0.128l-0.02,85.335l0.02,85.334c0,0.053 -0.029,0.101 -0.074,0.128l-73.912,42.65l-73.892,42.684c-0.046,0.027 -0.102,0.027 -0.148,0l-73.893,-42.684l-73.911,-42.65c-0.022,-0.013 -0.041,-0.032 -0.054,-0.054c-0.013,-0.022 -0.02,-0.048 -0.02,-0.074l0.02,-85.334l-0.02,-85.331c0,-0.026 0.007,-0.052 0.02,-0.074c0.013,-0.022 0.032,-0.041 0.054,-0.054l73.912,-42.65l73.892,-42.688Zm0.006,13.71c0.021,-0.012 0.044,-0.018 0.068,-0.018c0.024,0 0.047,0.006 0.068,0.018l67.96,39.256l67.979,39.226c0.021,0.012 0.038,0.029 0.05,0.05c0.012,0.021 0.018,0.044 0.018,0.068l-0.018,78.485l0.018,78.485c0,0.024 -0.006,0.047 -0.018,0.068c-0.012,0.021 -0.029,0.038 -0.05,0.05l-67.979,39.228l-67.961,39.258c-0.042,0.025 -0.094,0.025 -0.136,0l-67.96,-39.258l-67.979,-39.227c-0.042,-0.025 -0.068,-0.069 -0.068,-0.118l0.018,-78.485l-0.018,-78.485c0,-0.049 0.026,-0.093 0.068,-0.118l67.979,-39.227l67.961,-39.256Z" style="fill:#3aff00;fill-opacity:0.05;"/><path id="Pfad_1-26" d="M1989.03,738.371c0.022,-0.013 0.048,-0.02 0.074,-0.02c0.026,0 0.052,0.007 0.074,0.02l73.892,42.684l73.912,42.65c0.045,0.027 0.074,0.075 0.074,0.128l-0.02,85.335l0.02,85.334c0,0.053 -0.029,0.101 -0.074,0.128l-73.912,42.65l-73.892,42.684c-0.046,0.027 -0.102,0.027 -0.148,0l-73.893,-42.684l-73.911,-42.65c-0.022,-0.013 -0.041,-0.032 -0.054,-0.054c-0.013,-0.022 -0.02,-0.048 -0.02,-0.074l0.02,-85.334l-0.02,-85.331c0,-0.026 0.007,-0.052 0.02,-0.074c0.013,-0.022 0.032,-0.041 0.054,-0.054l73.912,-42.65l73.892,-42.688Zm0.006,13.71c0.021,-0.012 0.044,-0.018 0.068,-0.018c0.024,0 0.047,0.006 0.068,0.018l67.96,39.256l67.979,39.226c0.021,0.012 0.038,0.029 0.05,0.05c0.012,0.021 0.018,0.044 0.018,0.068l-0.018,78.485l0.018,78.485c0,0.024 -0.006,0.047 -0.018,0.068c-0.012,0.021 -0.029,0.038 -0.05,0.05l-67.979,39.228l-67.961,39.258c-0.042,0.025 -0.094,0.025 -0.136,0l-67.96,-39.258l-67.979,-39.227c-0.042,-0.025 -0.068,-0.069 -0.068,-0.118l0.018,-78.485l-0.018,-78.485c0,-0.049 0.026,-0.093 0.068,-0.118l67.979,-39.227l67.961,-39.256Z" style="fill:#3aff00;fill-opacity:0.05;"/><path id="Pfad_1-27" d="M1706.26,738.371c0.022,-0.013 0.048,-0.02 0.074,-0.02c0.026,0 0.052,0.007 0.074,0.02l73.892,42.684l73.912,42.65c0.045,0.027 0.074,0.075 0.074,0.128l-0.02,85.335l0.02,85.334c0,0.053 -0.029,0.101 -0.074,0.128l-73.912,42.65l-73.892,42.684c-0.046,0.027 -0.102,0.027 -0.148,0l-73.893,-42.684l-73.911,-42.65c-0.022,-0.013 -0.041,-0.032 -0.054,-0.054c-0.013,-0.022 -0.02,-0.048 -0.02,-0.074l0.02,-85.334l-0.02,-85.331c0,-0.026 0.007,-0.052 0.02,-0.074c0.013,-0.022 0.032,-0.041 0.054,-0.054l73.912,-42.65l73.892,-42.688Zm0.006,13.71c0.021,-0.012 0.044,-0.018 0.068,-0.018c0.024,0 0.047,0.006 0.068,0.018l67.96,39.256l67.979,39.226c0.021,0.012 0.038,0.029 0.05,0.05c0.012,0.021 0.018,0.044 0.018,0.068l-0.018,78.485l0.018,78.485c0,0.024 -0.006,0.047 -0.018,0.068c-0.012,0.021 -0.029,0.038 -0.05,0.05l-67.979,39.228l-67.961,39.258c-0.042,0.025 -0.094,0.025 -0.136,0l-67.96,-39.258l-67.979,-39.227c-0.042,-0.025 -0.068,-0.069 -0.068,-0.118l0.018,-78.485l-0.018,-78.485c0,-0.049 0.026,-0.093 0.068,-0.118l67.979,-39.227l67.961,-39.256Z" style="fill:#3aff00;fill-opacity:0.05;"/><path id="Pfad_1-28" d="M1564.88,492.02c0.022,-0.013 0.048,-0.02 0.074,-0.02c0.026,0 0.052,0.007 0.074,0.02l73.892,42.684l73.912,42.65c0.045,0.027 0.074,0.075 0.074,0.128l-0.02,85.335l0.02,85.334c0,0.053 -0.029,0.101 -0.074,0.128l-73.912,42.65l-73.892,42.684c-0.046,0.027 -0.102,0.027 -0.148,0l-73.893,-42.684l-73.911,-42.65c-0.022,-0.013 -0.041,-0.032 -0.054,-0.054c-0.013,-0.022 -0.02,-0.048 -0.02,-0.074l0.02,-85.334l-0.02,-85.331c0,-0.026 0.007,-0.052 0.02,-0.074c0.013,-0.022 0.032,-0.041 0.054,-0.054l73.912,-42.65l73.892,-42.688Zm0.006,13.71c0.021,-0.012 0.044,-0.018 0.068,-0.018c0.024,0 0.047,0.006 0.068,0.018l67.96,39.256l67.979,39.226c0.021,0.012 0.038,0.029 0.05,0.05c0.012,0.021 0.018,0.044 0.018,0.068l-0.018,78.485l0.018,78.485c0,0.024 -0.006,0.047 -0.018,0.068c-0.012,0.021 -0.029,0.038 -0.05,0.05l-67.979,39.228l-67.961,39.258c-0.042,0.025 -0.094,0.025 -0.136,0l-67.96,-39.258l-67.979,-39.227c-0.042,-0.025 -0.068,-0.069 -0.068,-0.118l0.018,-78.485l-0.018,-78.485c0,-0.049 0.026,-0.093 0.068,-0.118l67.979,-39.227l67.961,-39.256Z" style="fill:#3aff00;fill-opacity:0.05;"/><path id="Pfad_1-29" d="M147.878,0.02c0.022,-0.013 0.048,-0.02 0.074,-0.02c0.026,0 0.052,0.007 0.074,0.02l73.892,42.684l73.912,42.65c0.045,0.027 0.074,0.075 0.074,0.128l-0.02,85.335l0.02,85.334c0,0.053 -0.029,0.101 -0.074,0.128l-73.912,42.65l-73.892,42.684c-0.046,0.027 -0.102,0.027 -0.148,0l-73.893,-42.684l-73.911,-42.65c-0.022,-0.013 -0.041,-0.032 -0.054,-0.054c-0.013,-0.022 -0.02,-0.048 -0.02,-0.074l0.02,-85.334l-0.02,-85.331c0,-0.026 0.007,-0.052 0.02,-0.074c0.013,-0.022 0.032,-0.041 0.054,-0.054l73.912,-42.65l73.892,-42.688Zm0.006,13.71c0.021,-0.012 0.044,-0.018 0.068,-0.018c0.024,0 0.047,0.006 0.068,0.018l67.96,39.256l67.979,39.226c0.021,0.012 0.038,0.029 0.05,0.05c0.012,0.021 0.018,0.044 0.018,0.068l-0.018,78.485l0.018,78.485c0,0.024 -0.006,0.047 -0.018,0.068c-0.012,0.021 -0.029,0.038 -0.05,0.05l-67.979,39.228l-67.961,39.258c-0.042,0.025 -0.094,0.025 -0.136,0l-67.96,-39.258l-67.979,-39.227c-0.042,-0.025 -0.068,-0.069 -0.068,-0.118l0.018,-78.485l-0.018,-78.485c0,-0.049 0.026,-0.093 0.068,-0.118l67.979,-39.227l67.961,-39.256Z" style="fill:#3aff00;fill-opacity:0.05;"/><path id="Pfad_1-30" d="M2135.88,0.02c0.022,-0.013 0.048,-0.02 0.074,-0.02c0.026,0 0.052,0.007 0.074,0.02l73.892,42.684l73.912,42.65c0.045,0.027 0.074,0.075 0.074,0.128l-0.02,85.335l0.02,85.334c0,0.053 -0.029,0.101 -0.074,0.128l-73.912,42.65l-73.892,42.684c-0.046,0.027 -0.102,0.027 -0.148,0l-73.893,-42.684l-73.911,-42.65c-0.022,-0.013 -0.041,-0.032 -0.054,-0.054c-0.013,-0.022 -0.02,-0.048 -0.02,-0.074l0.02,-85.334l-0.02,-85.331c0,-0.026 0.007,-0.052 0.02,-0.074c0.013,-0.022 0.032,-0.041 0.054,-0.054l73.912,-42.65l73.892,-42.688Zm0.006,13.71c0.021,-0.012 0.044,-0.018 0.068,-0.018c0.024,0 0.047,0.006 0.068,0.018l67.96,39.256l67.979,39.226c0.021,0.012 0.038,0.029 0.05,0.05c0.012,0.021 0.018,0.044 0.018,0.068l-0.018,78.485l0.018,78.485c0,0.024 -0.006,0.047 -0.018,0.068c-0.012,0.021 -0.029,0.038 -0.05,0.05l-67.979,39.228l-67.961,39.258c-0.042,0.025 -0.094,0.025 -0.136,0l-67.96,-39.258l-67.979,-39.227c-0.042,-0.025 -0.068,-0.069 -0.068,-0.118l0.018,-78.485l-0.018,-78.485c0,-0.049 0.026,-0.093 0.068,-0.118l67.979,-39.227l67.961,-39.256Z" style="fill:#3aff00;fill-opacity:0.05;"/></g></svg>